<mxfile host="app.diagrams.net" modified="2021-10-07T16:45:05.238Z" agent="5.0 (Windows NT 10.0; Win64; x64) AppleWebKit/537.36 (KHTML, like Gecko) Chrome/94.0.4606.71 Safari/537.36" etag="y9tOq5L3cVux8g17OR9t" version="15.4.3" type="github">
  <diagram id="znUyj2fYBiu1qeqkHH4q" name="Page-1">
    <mxGraphModel dx="1422" dy="762" grid="0" gridSize="10" guides="1" tooltips="1" connect="1" arrows="1" fold="1" page="1" pageScale="1" pageWidth="827" pageHeight="1169" math="0" shadow="0">
      <root>
        <mxCell id="0" />
        <mxCell id="1" parent="0" />
        <mxCell id="dKuxjMyL4UmogAx30sUD-6" value="Pesquisa" style="swimlane;fontStyle=0;childLayout=stackLayout;horizontal=1;startSize=30;horizontalStack=0;resizeParent=1;resizeParentMax=0;resizeLast=0;collapsible=1;marginBottom=0;" vertex="1" parent="1">
          <mxGeometry x="73" y="144" width="218" height="150" as="geometry" />
        </mxCell>
        <mxCell id="dKuxjMyL4UmogAx30sUD-7" value="Indicadores" style="text;strokeColor=none;fillColor=none;align=left;verticalAlign=middle;spacingLeft=4;spacingRight=4;overflow=hidden;points=[[0,0.5],[1,0.5]];portConstraint=eastwest;rotatable=0;" vertex="1" parent="dKuxjMyL4UmogAx30sUD-6">
          <mxGeometry y="30" width="218" height="30" as="geometry" />
        </mxCell>
        <mxCell id="dKuxjMyL4UmogAx30sUD-8" value="População" style="text;strokeColor=none;fillColor=none;align=left;verticalAlign=middle;spacingLeft=4;spacingRight=4;overflow=hidden;points=[[0,0.5],[1,0.5]];portConstraint=eastwest;rotatable=0;" vertex="1" parent="dKuxjMyL4UmogAx30sUD-6">
          <mxGeometry y="60" width="218" height="30" as="geometry" />
        </mxCell>
        <mxCell id="dKuxjMyL4UmogAx30sUD-9" value="Economia" style="text;strokeColor=none;fillColor=none;align=left;verticalAlign=middle;spacingLeft=4;spacingRight=4;overflow=hidden;points=[[0,0.5],[1,0.5]];portConstraint=eastwest;rotatable=0;" vertex="1" parent="dKuxjMyL4UmogAx30sUD-6">
          <mxGeometry y="90" width="218" height="30" as="geometry" />
        </mxCell>
        <mxCell id="dKuxjMyL4UmogAx30sUD-12" value="Meio ambiente" style="text;strokeColor=none;fillColor=none;align=left;verticalAlign=middle;spacingLeft=4;spacingRight=4;overflow=hidden;points=[[0,0.5],[1,0.5]];portConstraint=eastwest;rotatable=0;" vertex="1" parent="dKuxjMyL4UmogAx30sUD-6">
          <mxGeometry y="120" width="218" height="30" as="geometry" />
        </mxCell>
        <mxCell id="dKuxjMyL4UmogAx30sUD-10" value="https://sidra.ibge.gov.br/" style="rounded=0;whiteSpace=wrap;html=1;fontSize=15;" vertex="1" parent="1">
          <mxGeometry x="73" y="56" width="704" height="60" as="geometry" />
        </mxCell>
        <mxCell id="dKuxjMyL4UmogAx30sUD-13" value="Acervo" style="swimlane;fontStyle=0;childLayout=stackLayout;horizontal=1;startSize=30;horizontalStack=0;resizeParent=1;resizeParentMax=0;resizeLast=0;collapsible=1;marginBottom=0;" vertex="1" parent="1">
          <mxGeometry x="329" y="144" width="218" height="28" as="geometry" />
        </mxCell>
        <mxCell id="dKuxjMyL4UmogAx30sUD-18" value="Território" style="swimlane;fontStyle=0;childLayout=stackLayout;horizontal=1;startSize=30;horizontalStack=0;resizeParent=1;resizeParentMax=0;resizeLast=0;collapsible=1;marginBottom=0;" vertex="1" parent="1">
          <mxGeometry x="329" y="184" width="218" height="26" as="geometry" />
        </mxCell>
        <mxCell id="dKuxjMyL4UmogAx30sUD-19" value="Contato" style="swimlane;fontStyle=0;childLayout=stackLayout;horizontal=1;startSize=30;horizontalStack=0;resizeParent=1;resizeParentMax=0;resizeLast=0;collapsible=1;marginBottom=0;" vertex="1" parent="1">
          <mxGeometry x="329" y="228" width="218" height="26" as="geometry" />
        </mxCell>
        <mxCell id="dKuxjMyL4UmogAx30sUD-21" value="Ajuda" style="swimlane;fontStyle=0;childLayout=stackLayout;horizontal=1;startSize=30;horizontalStack=0;resizeParent=1;resizeParentMax=0;resizeLast=0;collapsible=1;marginBottom=0;" vertex="1" parent="1">
          <mxGeometry x="329" y="268" width="218" height="26" as="geometry" />
        </mxCell>
        <mxCell id="dKuxjMyL4UmogAx30sUD-23" value="Acessar sua conta" style="swimlane;fontStyle=0;childLayout=stackLayout;horizontal=1;startSize=30;horizontalStack=0;resizeParent=1;resizeParentMax=0;resizeLast=0;collapsible=1;marginBottom=0;" vertex="1" parent="1">
          <mxGeometry x="583" y="144" width="193" height="90" as="geometry" />
        </mxCell>
        <mxCell id="dKuxjMyL4UmogAx30sUD-26" value="Sidra" style="text;strokeColor=none;fillColor=none;align=left;verticalAlign=middle;spacingLeft=4;spacingRight=4;overflow=hidden;points=[[0,0.5],[1,0.5]];portConstraint=eastwest;rotatable=0;" vertex="1" parent="dKuxjMyL4UmogAx30sUD-23">
          <mxGeometry y="30" width="193" height="30" as="geometry" />
        </mxCell>
        <mxCell id="dKuxjMyL4UmogAx30sUD-27" value="IBGE" style="text;strokeColor=none;fillColor=none;align=left;verticalAlign=middle;spacingLeft=4;spacingRight=4;overflow=hidden;points=[[0,0.5],[1,0.5]];portConstraint=eastwest;rotatable=0;" vertex="1" parent="dKuxjMyL4UmogAx30sUD-23">
          <mxGeometry y="60" width="193" height="30" as="geometry" />
        </mxCell>
      </root>
    </mxGraphModel>
  </diagram>
</mxfile>
